<svg width="436" height="474" viewBox="0 0 436 474" fill="none" xmlns="http://www.w3.org/2000/svg">
<path fill-rule="evenodd" clip-rule="evenodd" d="M162.503 104H162.49C161.912 104 161.406 104.229 160.984 104.558C160.903 104.623 160.801 104.66 160.728 104.733C160.324 105.14 160.09 105.697 160.039 106.304C160.034 106.372 160 106.431 160 106.501C160 106.81 160.073 107.098 160.176 107.37C160.21 107.458 160.252 107.534 160.295 107.617C160.386 107.795 160.496 107.96 160.628 108.111C160.693 108.186 160.75 108.262 160.823 108.328C161.023 108.51 161.243 108.669 161.494 108.779H161.496C161.806 108.917 162.144 109 162.503 109C163.616 109 164.526 108.26 164.849 107.251C164.936 107.02 164.995 106.779 164.997 106.514C164.997 106.509 165 106.506 165 106.501C165 105.118 163.882 104 162.503 104ZM197.43 74.1883C197.188 74.0865 196.918 74.0475 196.642 74.0288C196.593 74.0271 196.554 74 196.503 74H196.49C195.111 74 194 75.1194 194 76.5017C194 76.8375 194.071 77.1547 194.191 77.443C194.276 77.6499 194.415 77.8161 194.545 77.9908C194.6 78.057 194.63 78.1384 194.688 78.1995C195.103 78.6404 195.675 78.9118 196.315 78.9627C196.319 78.9627 196.322 78.9644 196.326 78.9661V78.9644C196.387 78.9695 196.441 79 196.503 79C197.882 79 199 77.8806 199 76.5017C199 75.4501 198.348 74.558 197.43 74.1883ZM111.503 30H111.49C110.111 30 109 31.1194 109 32.5C109 33.8789 110.125 35 111.503 35C112.88 35 114 33.8789 114 32.5C114 31.1194 112.88 30 111.503 30ZM111.503 89H111.49C110.111 89 109 90.1181 109 91.5008C109 92.8802 110.125 94 111.503 94C112.88 94 114 92.8802 114 91.5008C114 90.1181 112.88 89 111.503 89ZM128.503 50C129.882 50 131 48.8789 131 47.5C131 46.1177 129.882 45 128.503 45H128.492C127.111 45 126 46.1177 126 47.5C126 48.8789 127.125 50 128.503 50ZM111.503 15H111.49C110.111 15 109 16.1194 109 17.5C109 18.8806 110.125 20 111.503 20C112.88 20 114 18.8806 114 17.5C114 16.1194 112.88 15 111.503 15ZM111.503 59H111.49C110.111 59 109 60.1194 109 61.5C109 62.8806 110.125 64 111.503 64C112.88 64 114 62.8806 114 61.5C114 60.1194 112.88 59 111.503 59ZM111.503 74H111.49C110.111 74 109 75.1194 109 76.5017C109 77.8806 110.125 79 111.503 79C112.88 79 114 77.8806 114 76.5017C114 75.1194 112.88 74 111.503 74ZM128.503 20C129.882 20 131 18.8806 131 17.5C131 16.1194 129.882 15 128.503 15H128.492C127.111 15 126 16.1194 126 17.5C126 18.8806 127.125 20 128.503 20ZM128.503 35C129.882 35 131 33.8789 131 32.5C131 31.1194 129.882 30 128.503 30H128.492C127.111 30 126 31.1194 126 32.5C126 33.8789 127.125 35 128.503 35ZM128.503 5C129.882 5 131 3.8806 131 2.5C131 1.1194 129.882 0 128.503 0H128.492C127.111 0 126 1.1194 126 2.5C126 3.8806 127.125 5 128.503 5ZM111.503 45H111.49C110.111 45 109 46.1177 109 47.5C109 48.8789 110.125 50 111.503 50C112.88 50 114 48.8789 114 47.5C114 46.1177 112.88 45 111.503 45ZM94.5051 59H94.4898C93.1111 59 92 60.1194 92 61.5C92 62.8806 93.1264 64 94.5051 64C95.8838 64 97 62.8806 97 61.5C97 60.1194 95.8838 59 94.5051 59ZM94.5051 45H94.4898C93.1111 45 92 46.1177 92 47.5C92 48.8789 93.1264 50 94.5051 50C95.8838 50 97 48.8789 97 47.5C97 46.1177 95.8838 45 94.5051 45ZM94.5042 74H94.489C94.1755 74 93.8824 74.0712 93.6096 74.1798C93.4707 74.2324 93.3555 74.3172 93.2301 74.3935C93.125 74.4596 93.0183 74.519 92.9234 74.6021C92.7591 74.7361 92.6303 74.8921 92.5049 75.0651C92.4812 75.1007 92.4575 75.133 92.4338 75.172C92.2982 75.3823 92.1982 75.6028 92.1305 75.8504L92.1288 75.8521V75.8538C92.0712 76.0641 92 76.271 92 76.5017C92 77.4854 92.5845 78.3182 93.4131 78.7252V78.7269H93.4148C93.7452 78.8881 94.101 78.9949 94.4907 78.9966C94.4958 78.9966 94.4992 79 94.5042 79C95.8834 79 97 77.8806 97 76.5017C97 76.1557 96.9305 75.8267 96.8035 75.5282C96.4256 74.6309 95.5378 74 94.5042 74ZM179.503 45H179.49C178.111 45 177 46.1177 177 47.5C177 48.8789 178.125 50 179.503 50C180.882 50 182 48.8789 182 47.5C182 46.1177 180.882 45 179.503 45ZM94.5042 30H94.489C94.2043 30 93.9417 30.0628 93.6943 30.1611C93.469 30.2391 93.2724 30.3562 93.0827 30.4919C93.081 30.4919 93.081 30.4919 93.0793 30.4936C92.4405 30.9464 92 31.6554 92 32.5C92 32.6069 92.0474 32.6967 92.061 32.8019H92.0593C92.0593 32.8053 92.061 32.807 92.0627 32.8087C92.1406 33.4176 92.4134 33.9552 92.8489 34.3453C92.9082 34.3996 92.9827 34.4301 93.0454 34.4776C93.2165 34.6031 93.3809 34.7337 93.5825 34.8134C93.8655 34.9305 94.1738 35 94.5042 35C95.5378 35 96.4256 34.3708 96.8035 33.4718C96.9305 33.1733 97 32.8443 97 32.5C97 32.1557 96.9305 31.8267 96.8035 31.5282C96.4256 30.6292 95.5378 30 94.5042 30ZM179.503 59H179.49C178.111 59 177 60.1194 177 61.5C177 62.8806 178.125 64 179.503 64C180.882 64 182 62.8806 182 61.5C182 60.1194 180.882 59 179.503 59ZM179.503 30H179.49C178.111 30 177 31.1194 177 32.5C177 33.8789 178.125 35 179.503 35C180.882 35 182 33.8789 182 32.5C182 31.1194 180.882 30 179.503 30ZM179.503 89H179.49C178.111 89 177 90.1181 177 91.5008C177 92.8802 178.125 94 179.503 94C180.882 94 182 92.8802 182 91.5008C182 90.1181 180.882 89 179.503 89ZM179.503 74H179.49C178.111 74 177 75.1194 177 76.5017C177 77.8806 178.125 79 179.503 79C180.882 79 182 77.8806 182 76.5017C182 75.1194 180.882 74 179.503 74ZM162.504 5C163.882 5 165 3.8806 165 2.5C165 2.5 164.998 2.4983 164.998 2.49661C164.998 2.09125 164.88 1.7232 164.707 1.38399C164.69 1.35176 164.668 1.32802 164.65 1.29749C164.468 0.976934 164.221 0.710651 163.921 0.496947H163.92C163.512 0.20692 163.041 0 162.504 0H162.491C161.112 0 160 1.1194 160 2.5C160 3.8806 161.126 5 162.504 5ZM179.503 15H179.49C178.111 15 177 16.1194 177 17.5C177 18.8806 178.125 20 179.503 20C180.882 20 182 18.8806 182 17.5C182 16.1194 180.882 15 179.503 15ZM162.503 30H162.49C161.111 30 160 31.1194 160 32.5C160 33.8789 161.125 35 162.503 35C163.882 35 165 33.8789 165 32.5C165 31.1194 163.882 30 162.503 30ZM162.503 74H162.49C161.111 74 160 75.1194 160 76.5017C160 77.8806 161.125 79 162.503 79C163.882 79 165 77.8806 165 76.5017C165 75.1194 163.882 74 162.503 74ZM162.503 59H162.49C161.111 59 160 60.1194 160 61.5C160 62.8806 161.125 64 162.503 64C163.882 64 165 62.8806 165 61.5C165 60.1194 163.882 59 162.503 59ZM162.503 45H162.49C161.111 45 160 46.1177 160 47.5C160 48.8789 161.125 50 162.503 50C163.882 50 165 48.8789 165 47.5C165 46.1177 163.882 45 162.503 45ZM162.503 89H162.49C161.111 89 160 90.1181 160 91.5008C160 92.8802 161.125 94 162.503 94C163.882 94 165 92.8802 165 91.5008C165 90.1181 163.882 89 162.503 89ZM128.503 64C129.882 64 131 62.8806 131 61.5C131 60.1194 129.882 59 128.503 59H128.492C127.111 59 126 60.1194 126 61.5C126 62.8806 127.125 64 128.503 64ZM130.268 104.733C130.194 104.658 130.092 104.621 130.009 104.558C129.587 104.229 129.081 104 128.503 104H128.49C127.111 104 126 105.118 126 106.501C126 107.18 126.276 107.79 126.716 108.242C126.718 108.243 126.718 108.245 126.72 108.245C127.174 108.71 127.804 109 128.503 109C128.636 109 128.749 108.946 128.876 108.925C128.878 108.925 128.879 108.924 128.881 108.924C129.471 108.832 129.985 108.561 130.36 108.131C130.421 108.065 130.456 107.984 130.509 107.911C130.622 107.75 130.743 107.597 130.817 107.412C130.929 107.135 130.995 106.833 130.997 106.511C130.997 106.508 131 106.506 131 106.501C131 105.866 130.744 105.303 130.356 104.862C130.321 104.821 130.306 104.769 130.268 104.733ZM195.53 34.8033C195.83 34.9305 196.159 35 196.504 35C196.869 35 197.209 34.9135 197.521 34.7728C197.531 34.7677 197.538 34.7592 197.548 34.7542C197.853 34.6117 198.116 34.4117 198.338 34.1641C198.741 33.7216 199 33.1451 199 32.5008C199 31.1207 197.882 30 196.504 30H196.491C195.111 30 194 31.1207 194 32.5008C194 33.5351 194.632 34.4235 195.53 34.8033ZM196.504 50C197.882 50 199 48.8789 199 47.5C199 46.1177 197.882 45 196.504 45H196.491C195.111 45 194 46.1177 194 47.5C194 48.8789 195.123 50 196.504 50ZM196.504 64C197.882 64 199 62.8806 199 61.5C199 60.1194 197.882 59 196.504 59H196.491C195.111 59 194 60.1194 194 61.5C194 62.8806 195.123 64 196.504 64ZM145.503 30H145.492C144.113 30 143 31.1194 143 32.5C143 33.8789 144.125 35 145.503 35C146.882 35 148 33.8789 148 32.5C148 31.1194 146.882 30 145.503 30ZM145.503 15H145.492C144.113 15 143 16.1194 143 17.5C143 18.8806 144.125 20 145.503 20C146.882 20 148 18.8806 148 17.5C148 16.1194 146.882 15 145.503 15ZM145.503 0H145.492C144.113 0 143 1.1194 143 2.5C143 3.8806 144.125 5 145.503 5C146.882 5 148 3.8806 148 2.5C148 1.1194 146.882 0 145.503 0ZM128.503 94C129.882 94 131 92.8802 131 91.5008C131 90.1181 129.882 89 128.503 89H128.492C127.111 89 126 90.1181 126 91.5008C126 92.8802 127.125 94 128.503 94ZM128.503 79C129.882 79 131 77.8806 131 76.5017C131 75.1194 129.882 74 128.503 74H128.492C127.111 74 126 75.1194 126 76.5017C126 77.8806 127.125 79 128.503 79ZM145.503 45H145.492C144.113 45 143 46.1177 143 47.5C143 48.8789 144.125 50 145.503 50C146.882 50 148 48.8789 148 47.5C148 46.1177 146.882 45 145.503 45ZM162.503 15H162.49C161.111 15 160 16.1194 160 17.5C160 18.8806 161.125 20 162.503 20C163.882 20 165 18.8806 165 17.5C165 16.1194 163.882 15 162.503 15ZM145.503 89H145.492C144.113 89 143 90.1181 143 91.5008C143 92.8802 144.125 94 145.503 94C146.882 94 148 92.8802 148 91.5008C148 90.1181 146.882 89 145.503 89ZM145.503 104H145.492C144.113 104 143 105.12 143 106.501C143 107.882 144.125 109 145.503 109C146.882 109 148 107.882 148 106.501C148 105.12 146.882 104 145.503 104ZM145.503 74H145.492C144.113 74 143 75.1194 143 76.5017C143 77.8806 144.125 79 145.503 79C146.882 79 148 77.8806 148 76.5017C148 75.1194 146.882 74 145.503 74ZM145.503 59H145.492C144.113 59 143 60.1194 143 61.5C143 62.8806 144.125 64 145.503 64C146.882 64 148 62.8806 148 61.5C148 60.1194 146.882 59 145.503 59Z" fill="#130D3A"/>
<path fill-rule="evenodd" clip-rule="evenodd" d="M1.56416 431.4C11.1005 453.846 33.094 469.952 59.2271 470.864C95.1009 472.117 125.19 444.265 126.434 408.654C126.922 394.685 122.898 381.597 115.663 370.773L109.941 373.813C116.669 383.657 120.426 395.632 119.979 408.429C118.859 440.5 91.7596 465.585 59.4508 464.457C35.7002 463.627 15.746 448.863 7.2862 428.36L1.56416 431.4Z" fill="#C8D1EF"/>
<path fill-rule="evenodd" clip-rule="evenodd" d="M20.1473 433.628C28.6684 446.508 43.162 455.231 59.8777 455.814C87.21 456.769 110.133 435.601 111.079 408.535C111.724 390.043 101.944 373.582 86.9663 364.704L82.3713 369.444C96.128 376.968 105.221 391.697 104.641 408.31C103.819 431.855 83.8772 450.27 60.1003 449.439C45.0244 448.913 32.0263 440.776 24.7417 428.889L20.1473 433.628Z" fill="#161C2D"/>
<mask id="mask0_7_885" style="mask-type:luminance" maskUnits="userSpaceOnUse" x="425" y="370" width="11" height="78">
<path fill-rule="evenodd" clip-rule="evenodd" d="M425.092 370.738H435.208V447.354H425.092V370.738Z" fill="white"/>
</mask>
<g mask="url(#mask0_7_885)">
<path fill-rule="evenodd" clip-rule="evenodd" d="M425.092 446.029C425.092 442.348 427.298 440.501 429.242 438.87C431.035 437.371 432.45 436.187 432.45 433.709C432.45 431.229 431.035 430.045 429.242 428.543C427.298 426.913 425.092 425.067 425.092 421.383C425.092 417.703 427.298 415.856 429.242 414.227C431.035 412.728 432.45 411.543 432.45 409.066C432.45 406.585 431.035 405.4 429.242 403.899C427.298 402.268 425.092 400.422 425.092 396.737C425.092 393.052 427.296 391.202 429.242 389.571C431.034 388.07 432.45 386.882 432.45 384.4C432.45 381.918 431.034 380.731 429.242 379.23C427.296 377.597 425.092 375.749 425.092 372.062C425.092 371.332 425.709 370.738 426.472 370.738C427.233 370.738 427.85 371.332 427.85 372.062C427.85 374.546 429.266 375.733 431.058 377.234C433.003 378.865 435.208 380.713 435.208 384.4C435.208 388.085 433.003 389.935 431.056 391.566C429.266 393.068 427.85 394.255 427.85 396.737C427.85 399.217 429.266 400.404 431.056 401.903C433.003 403.534 435.208 405.381 435.208 409.066C435.208 412.747 433.002 414.594 431.056 416.223C429.266 417.723 427.85 418.908 427.85 421.383C427.85 423.863 429.266 425.047 431.056 426.548C433.002 428.177 435.208 430.025 435.208 433.709C435.208 437.391 433.002 439.239 431.056 440.868C429.266 442.368 427.85 443.553 427.85 446.029C427.85 446.76 427.233 447.354 426.472 447.354C425.709 447.354 425.092 446.76 425.092 446.029Z" fill="#B80003"/>
</g>
<path fill-rule="evenodd" clip-rule="evenodd" d="M411 444.668C411 440.967 413.181 439.111 415.103 437.473C416.875 435.966 418.275 434.777 418.275 432.286C418.275 429.793 416.875 428.603 415.103 427.094C413.181 425.457 411 423.601 411 419.899C411 416.199 413.181 414.345 415.103 412.705C416.875 411.2 418.275 410.009 418.275 407.52C418.275 405.027 416.875 403.835 415.103 402.326C413.181 400.689 411 398.831 411 395.129C411 391.424 413.18 389.567 415.102 387.927C416.875 386.417 418.275 385.225 418.275 382.73C418.275 380.234 416.875 379.043 415.103 377.533C413.18 375.894 411 374.035 411 370.332C411 369.595 411.61 369 412.363 369C413.117 369 413.727 369.595 413.727 370.332C413.727 372.826 415.127 374.018 416.898 375.529C418.822 377.168 421 379.025 421 382.73C421 386.434 418.822 388.293 416.897 389.932C415.127 391.442 413.727 392.635 413.727 395.129C413.727 397.622 415.127 398.813 416.897 400.321C418.822 401.959 421 403.816 421 407.52C421 411.22 418.82 413.074 416.897 414.713C415.125 416.22 413.727 417.409 413.727 419.899C413.727 422.39 415.125 423.581 416.897 425.089C418.82 426.727 421 428.584 421 432.286C421 435.986 418.82 437.844 416.897 439.48C415.125 440.987 413.727 442.177 413.727 444.668C413.727 445.403 413.117 446 412.363 446C411.61 446 411 445.403 411 444.668Z" fill="#B80003"/>
</svg>
