<svg width="688" height="688" viewBox="0 0 688 688" fill="none" xmlns="http://www.w3.org/2000/svg">
<path d="M243.449 516.344C249.183 514.313 255.058 512.704 261.027 511.528L261.75 514.177C261.83 514.489 262.021 514.762 262.286 514.945C262.552 515.128 262.874 515.21 263.195 515.175L286.827 512.423C293.329 497.596 305.266 475.133 305.438 474.789C305.266 469.182 305.438 464.469 305.438 459.103C291.919 464.125 266.91 473.654 253.838 479.743C253.542 479.933 253.314 480.211 253.184 480.538C253.055 480.865 253.03 481.225 253.115 481.566C253.115 481.566 253.356 482.426 253.666 483.664C247.267 483.664 228.107 482.735 223.497 487.104C222.78 488.103 222.428 489.317 222.499 490.544C222.224 495.291 224.598 532.168 228.382 543.004C230.343 548.68 234.471 548.061 237.291 542.626C240.556 534.441 242.652 525.836 243.518 517.067C243.518 516.619 243.415 516.654 243.449 516.344ZM239.493 485.556C243.69 485.212 244.997 485.281 254.01 485.006C255.626 491.129 258.963 503.719 260.683 510.152C254.614 511.092 248.623 512.484 242.761 514.315C240.934 504.827 239.842 495.212 239.493 485.556Z" fill="black"/>
<path d="M560.066 184.487C560.926 183.283 559.826 181.735 558.897 180.531C561.528 177.825 564.446 175.414 567.6 173.341C572.922 170.689 577.788 167.205 582.014 163.021C583.768 161.198 587.07 157.449 585.832 155.247C584.594 153.045 582.392 152.908 579.399 154.181C580.696 152.819 581.754 151.249 582.53 149.537C583.493 146.853 581.222 144.686 576.303 146.681C578.092 143.826 578.505 140.833 575.478 139.389C573.035 138.219 569.458 141.005 567.394 142.829C563.341 146.37 559.536 150.186 556.007 154.249C553.84 149.709 550.4 144.48 546.1 146.131C541.8 147.782 545.137 155.178 547.338 159.203L539.53 164.604C538.349 163.967 537.016 163.669 535.677 163.744C526.802 165.257 486.038 196.286 481.91 196.286C478.745 196.286 433.543 174.614 394.465 168.353C394.389 168.119 394.249 167.911 394.061 167.752C393.872 167.594 393.642 167.492 393.398 167.459C386.582 166.296 379.672 165.778 372.758 165.911C372.549 165.925 372.345 165.985 372.161 166.086C371.976 166.187 371.817 166.327 371.692 166.496H368.802C368.114 163.709 365.569 157.277 364.674 154.8C367.014 152.77 370.247 151.738 371.933 148.47C375.029 142.416 374.891 131.889 374.031 125.147C377.918 122.189 378.022 117.441 377.127 112.591C376.783 110.63 375.717 106.193 374.066 105.092C373.137 104.473 371.176 105.092 369.49 105.711C367.805 101.789 367.805 103.578 368.493 101.996C368.812 101.266 368.999 100.486 369.043 99.6909C370.866 100.241 374.65 96.5949 373.343 91.7789C372.658 90.0549 371.818 88.3968 370.832 86.8253C371.314 85.6557 372.346 84.2453 369.112 79.9453C367.719 78.4431 365.911 77.3893 363.918 76.9181H362.335C361.194 75.2609 359.518 74.0464 357.588 73.4781C354.674 72.7352 351.586 73.1676 348.988 74.6821C348.3 75.1981 347.75 75.8861 347.062 76.3677C345.506 75.4232 343.721 74.9237 341.902 74.9237C340.082 74.9237 338.297 75.4232 336.742 76.3677C335.831 76.725 335.002 77.2627 334.305 77.9484C333.607 78.6341 333.055 79.4538 332.682 80.3581C330.997 79.7766 329.209 79.5527 327.432 79.7007C325.655 79.8488 323.928 80.3656 322.362 81.2181C316.42 84.4405 311.975 89.8611 309.978 96.3197C309.923 97.2936 309.923 98.2698 309.978 99.2437H309.6C304.44 98.4869 297.87 110.733 303.133 120.262C303.752 121.397 304.543 122.464 305.3 123.702C307.502 127.142 306.642 128.174 311.561 132.371C313.006 133.609 313.246 133.506 314.141 134.263C315.035 135.02 314.691 134.641 315.207 136.568C315.489 137.703 315.992 138.77 316.689 139.709C317.386 140.648 318.262 141.439 319.266 142.037C319.632 145.402 321.067 148.561 323.36 151.05C324.086 151.863 324.933 152.559 325.871 153.114C326.124 153.257 326.407 153.339 326.697 153.355C327.729 159.753 329.002 168.078 329.552 171.621L326.49 173.273C322.485 174.884 318.589 176.757 314.829 178.88C314.534 179.084 314.325 179.39 314.244 179.74C310.598 181.666 307.158 183.489 305.197 184.659C277.883 200.861 200.311 307.673 199.52 312.558C199.433 312.838 199.433 313.138 199.52 313.418C200.632 315.192 201.987 316.802 203.545 318.2C203.065 319.076 202.488 319.895 201.825 320.642C194.945 325.149 184.625 331.857 179.086 337.842C178.698 338.188 178.407 338.63 178.241 339.123C178.075 339.617 178.041 340.145 178.142 340.655C178.243 341.166 178.475 341.641 178.815 342.035C179.156 342.428 179.593 342.726 180.084 342.899C181.116 343.243 181.288 343.14 187.996 339.459C186.152 341.076 184.645 343.04 183.558 345.238C183.111 347.13 184.831 348.231 186.998 347.887C188.218 347.567 189.379 347.056 190.438 346.373C189.818 347.331 189.488 348.448 189.488 349.59C189.488 350.731 189.818 351.848 190.438 352.806C193.878 357.141 202.891 343.484 207.638 340.113C209.565 342.555 212.179 348.265 216.342 346.752C219.954 345.41 215.998 337.464 216.342 335.159C217.741 333.815 219.236 332.573 220.814 331.444C223.467 333.412 226.501 334.806 229.723 335.537C235.399 335.537 294.636 275.75 299.142 270.969C297.526 286.173 289.373 351.43 291.093 364.124C291.884 369.869 305.678 370.694 311.492 371.004C309.738 412.284 308.568 474.823 308.258 475.477C299.142 495.119 296.666 500.485 293.604 506.437C288.031 517.101 264.57 556.454 261.922 565.398C261.543 566.809 261.509 567.359 262.988 569.973C258.555 574.634 254.441 579.587 250.673 584.8C248.781 588.24 256.899 620.301 262.644 631.653C263.951 634.198 266.084 638.12 268.939 638.017C277.539 637.707 277.505 606.816 277.264 598.181C277.263 597.915 277.165 597.659 276.989 597.459C278.548 595.132 280.248 592.904 282.08 590.785C283.174 591.538 284.324 592.205 285.52 592.781C286.69 593.297 287.997 592.402 288.96 591.611C300.415 582.598 362.198 505.611 375.442 469.285C381.462 452.704 389.477 429.793 391.747 413.557C393.135 403.291 393.262 392.893 392.126 382.597C392.126 382.451 392.184 382.311 392.287 382.207C392.39 382.104 392.53 382.046 392.676 382.046C392.822 382.046 392.962 382.104 393.065 382.207C393.168 382.311 393.226 382.451 393.226 382.597C394.949 392.952 395.285 403.491 394.224 413.935C391.678 436.467 373.894 483.423 364.399 500.692C372.586 499.178 389.236 495.876 397.286 493.468C424.118 485.315 448.886 460.994 451.053 433.681C451.754 420.813 451.754 407.917 451.053 395.049C450.821 377.286 448.512 359.61 444.173 342.383C451.466 338.427 458.139 333.783 460.306 329.517C464.95 320.401 452.67 267.941 449.986 253.218C464.675 254.835 489.684 257.759 501.346 248.643C514.693 237.91 543.52 207.707 560.066 184.487ZM275.406 596.289C269.214 592.54 260.546 583.63 259.238 576.647C260.649 574.858 262.128 573.207 263.504 571.349C268.166 578.463 273.979 584.753 280.704 589.96C278.815 591.963 277.046 594.077 275.406 596.289ZM548.886 160.166C549.064 160.053 549.192 159.875 549.243 159.67C549.294 159.466 549.265 159.249 549.162 159.065C547.958 156.829 544.346 148.952 546.857 148.057C548.302 147.507 549.574 148.401 550.641 149.605C552.269 151.671 553.537 153.997 554.39 156.485C554.454 156.688 554.572 156.869 554.73 157.009C554.889 157.15 555.083 157.245 555.292 157.284C555.5 157.323 555.715 157.304 555.914 157.23C556.113 157.156 556.288 157.029 556.42 156.864C559.86 153.045 567.91 144.342 572.45 142.003C575.89 140.214 576.716 143.517 568.288 151.222C566.352 152.698 564.492 154.271 562.715 155.935C562.617 156.07 562.565 156.233 562.565 156.399C562.565 156.566 562.617 156.729 562.715 156.864C562.715 157.758 563.438 158.756 564.676 157.827C567.666 155.202 570.826 152.777 574.136 150.569C575.825 149.368 577.789 148.611 579.846 148.367C578.814 151.532 569.217 160.132 568.391 161.095C568.129 161.33 567.97 161.658 567.948 162.009C567.926 162.36 568.042 162.705 568.272 162.971C568.502 163.237 568.827 163.402 569.177 163.431C569.528 163.46 569.875 163.35 570.146 163.125C573.964 160.648 580.638 154.869 582.942 155.729C585.247 156.589 578.402 162.987 576.682 164.501C566.809 173.066 569.354 167.562 557.934 179.189C552.962 173.743 547.254 169.019 540.974 165.154L548.886 160.166ZM399.418 324.701C398.834 319.954 398.111 314.829 397.217 309.497L398.696 307.536C405.576 298.695 407.64 284.625 406.986 273.583C410.667 289.717 413.591 305.575 415.827 321.33L399.418 324.701ZM348.266 206.916C339.218 200.036 324.667 188.168 316.205 180.049L329.965 173.169C342.6 184.971 353.416 198.581 362.06 213.555C375.277 237.835 385.082 263.823 391.197 290.783L342.142 221.398L348.541 208.12C348.626 207.915 348.645 207.69 348.595 207.474C348.546 207.258 348.431 207.063 348.266 206.916ZM371.52 167.906C371.726 168.285 374.1 173.341 377.712 182.182C377.712 182.561 377.058 191.161 376.749 194.188C372.358 192.447 368.217 190.134 364.434 187.308C365.19 184.315 368.596 170.727 368.837 167.665L371.52 167.906ZM359.308 204.852C359.549 204.233 359.79 203.407 360.065 202.444L362.37 203.648C363.677 204.508 363.161 201.893 364.33 209.461C364.33 210.734 364.674 212.145 364.743 213.693C363.161 210.837 361.2 207.776 359.342 204.852H359.308ZM357.382 201.962C350.883 192.744 343.485 184.194 335.297 176.437L361.2 187.686C360.202 190.06 358.758 197.318 357.416 201.962H357.382ZM383.835 222.121C380.395 212.729 377.746 202.237 376.439 199.485C376.517 198.627 376.517 197.764 376.439 196.905C376.937 197.091 377.458 197.206 377.987 197.249C378.319 197.253 378.641 197.137 378.894 196.922C379.147 196.707 379.313 196.408 379.363 196.08C379.638 194.945 380.086 189.2 380.154 187.927C390.161 213.192 398.515 239.081 405.163 265.43C385.727 224.081 388.72 236.053 383.87 222.121H383.835ZM412.284 287.79C404.441 250.191 390.646 203.304 374.96 168.56C380.721 168.563 386.472 169.023 392.16 169.936C395.084 196.08 392.642 195.185 394.602 196.217C396.563 197.249 408.362 201.997 410.117 202.719C409.945 205.368 412.422 281.117 412.318 287.79H412.284ZM372.69 107.293C374.483 111.207 375.116 115.553 374.513 119.815C374.233 120.9 373.657 121.886 372.85 122.663C372.043 123.44 371.036 123.978 369.942 124.217C368.847 124.456 367.707 124.386 366.65 124.016C365.593 123.646 364.659 122.989 363.952 122.12C362.311 118.662 361.075 115.026 360.271 111.284C361.2 110.08 371.107 107.672 372.69 107.293ZM325.355 141.693C324.099 141.121 322.812 140.616 321.502 140.18C320.623 139.818 319.838 139.26 319.208 138.549C318.578 137.837 318.119 136.99 317.866 136.074C317.614 135.157 317.575 134.195 317.752 133.261C317.929 132.327 318.318 131.446 318.888 130.685C321.055 128.862 323.016 128.965 324.805 131.683C325.94 133.781 325.906 133.953 326.422 134.16C326.57 134.225 326.73 134.258 326.892 134.256C327.053 134.254 327.213 134.218 327.359 134.15C327.506 134.081 327.636 133.982 327.742 133.859C327.847 133.737 327.924 133.593 327.97 133.437C328.479 131.284 328.561 129.052 328.21 126.867C327.798 124.493 327.729 113.967 327.798 113.623C328.802 114.153 329.931 114.402 331.066 114.345C337.292 114.105 338.53 110.905 341.007 108.291C343.862 108.566 344.447 109.942 347.681 108.291C349.195 107.43 350.584 106.365 351.809 105.126C352.797 105.531 353.752 106.014 354.664 106.571C356.726 107.562 359.051 107.867 361.298 107.44C363.546 107.012 365.597 105.876 367.151 104.197C367.53 104.92 367.874 105.642 368.183 106.399C365.022 107.38 362.046 108.879 359.377 110.837C358.792 111.559 359.652 115.481 359.858 116.409C356.977 116.772 354.188 117.67 351.637 119.058C351.121 117.269 349.986 113.932 348.197 113.004C347.659 112.839 347.084 112.839 346.546 113.004C343.45 113.485 332.338 116.822 330.997 118.645C329.827 119.918 333.164 129.757 334.196 131.373C338.152 137.497 349.745 135.708 351.912 128.553C352.449 126.151 352.449 123.661 351.912 121.26C352.91 121.26 355.902 120.193 356.246 120.09C358.62 125.422 359.308 125.732 362.06 131.477C361.682 131.786 361.062 132.302 360.546 132.646C358.104 134.263 357.588 133.988 357.726 134.676C357.766 134.812 357.854 134.93 357.974 135.006C358.095 135.082 358.239 135.111 358.379 135.089C359.823 134.882 361.234 134.489 362.576 133.919C363.379 133.619 364.042 133.03 364.434 132.268C365.397 130.101 360.065 121.948 357.966 119.505C358.379 119.505 359.342 118.817 360.065 118.439C361.028 122.292 361.682 125.319 365.397 126.833C366.47 127.238 367.615 127.422 368.762 127.375C369.908 127.328 371.034 127.05 372.07 126.557C372.621 132.612 372.518 142.45 369.628 147.817C368.149 150.603 364.502 151.669 362.163 153.974C361.475 154.628 361.922 155.557 362.163 156.554C365.982 167.184 366.05 167.149 365.844 168.525C364.832 174.236 363.418 179.869 361.613 185.381C360.753 185.003 351.086 179.877 332.166 172.516C331.582 168.629 328.451 147.885 327.454 144.067C327.522 142.725 327.35 142.416 325.355 141.521V141.693ZM349.435 127.658C348.334 131.408 343.14 133.025 339.425 131.993C335.71 130.961 335.469 129.069 333.714 124.597C332.892 122.888 332.324 121.069 332.029 119.196C333.164 117.957 345.582 115.412 347.13 115.171C349.302 118.885 350.116 123.238 349.435 127.486V127.658ZM214.828 334.196C213.521 335.469 215.275 339.631 215.55 343.243C215.55 343.553 215.55 344.894 215.344 344.997C213.452 345.617 211.698 342.761 210.631 341.041C209.565 339.321 208.498 336.982 206.813 337.601C203.373 339.218 195.392 349.813 192.262 350.914C190.679 347.887 199.726 339.253 200.036 338.771C200.169 338.55 200.238 338.296 200.237 338.039C200.236 337.781 200.164 337.528 200.029 337.308C199.894 337.088 199.702 336.909 199.473 336.791C199.243 336.673 198.986 336.62 198.729 336.638C198.11 336.638 197.697 337.189 196.734 338.049C193.804 340.908 190.451 343.298 186.792 345.135C190.109 341.329 193.659 337.733 197.422 334.368C197.607 334.177 197.738 333.939 197.8 333.68C197.8 333.68 197.078 331.857 195.667 332.579C193.672 333.68 183.971 339.287 180.91 340.732C180.497 340.457 180.738 340.044 180.91 339.631C185.76 333.68 196.424 326.456 202.96 321.881C203.727 321.091 204.366 320.185 204.852 319.197C209.379 323.409 214.207 327.284 219.3 330.79C217.731 331.819 216.237 332.957 214.828 334.196ZM294.877 365.465C294.12 364.984 293.57 364.537 293.466 363.917C291.574 349.882 302.101 270.349 301.929 267.219C301.929 267.035 301.892 266.854 301.821 266.684C301.75 266.515 301.645 266.362 301.514 266.234C301.382 266.105 301.226 266.005 301.056 265.938C300.885 265.871 300.702 265.838 300.518 265.843C298.764 265.843 301.86 265.843 258.034 307.811C255.145 310.529 233.06 331.65 229.379 333.061C224.322 332.682 205.299 317.512 202.203 312.73C208.189 300.621 280.773 200.999 305.885 185.76C307.811 184.59 311.114 182.767 314.726 180.841C315.975 182.018 317.321 183.089 318.75 184.04C326.731 191.608 337.842 201.033 346.27 208.12L339.7 221.157C339.6 221.33 339.548 221.526 339.548 221.725C339.548 221.924 339.6 222.12 339.7 222.293C393.054 298.833 392.263 297.973 392.607 297.973C396.027 315.659 398.154 333.572 398.971 351.568C398.971 356.418 398.971 356.005 399.178 355.661C399.384 355.317 399.178 355.902 399.178 355.902C390.853 364.984 308.465 373.446 294.877 365.465ZM485.04 251.498C469.457 253.665 451.844 250.432 448.438 250.294C446.546 241.124 442.774 232.444 437.362 224.804C437.279 224.692 437.157 224.616 437.021 224.591C436.885 224.565 436.744 224.592 436.626 224.666C436.509 224.74 436.424 224.855 436.388 224.989C436.352 225.123 436.368 225.266 436.433 225.388C438.428 229.448 445.102 246.957 446.753 251.223C446.237 252.874 462.302 319.301 457.761 328.245C453.702 336.329 430.069 346.511 421.538 349.435C419.851 330.284 417.094 311.243 413.282 292.4C414.451 282.493 412.938 223.6 412.49 201.825C412.477 201.571 412.393 201.327 412.247 201.12C412.101 200.913 411.899 200.752 411.665 200.655L396.219 194.153C396.149 185.978 395.632 177.813 394.671 169.695C433.234 176.369 478.16 198.419 481.91 198.453C487.345 198.453 527.73 167.493 536.09 166.255C539.805 165.67 555.766 179.602 557.624 183.455C541.318 206.228 512.663 236.156 499.385 246.51C495.107 249.37 490.169 251.087 485.04 251.498Z" fill="black"/>
<path d="M345.888 120.779C345.845 120.553 345.758 120.338 345.632 120.145C345.506 119.953 345.343 119.788 345.153 119.658C344.963 119.529 344.749 119.438 344.524 119.391C344.299 119.345 344.067 119.343 343.841 119.386C343.615 119.428 343.4 119.515 343.208 119.642C343.015 119.768 342.85 119.93 342.721 120.12C342.591 120.31 342.5 120.524 342.454 120.749C342.407 120.974 342.405 121.206 342.448 121.432C343.136 124.872 343.273 125.664 344.787 125.664C345.073 125.665 345.355 125.594 345.607 125.459C345.859 125.323 346.073 125.127 346.23 124.888C346.388 124.649 346.483 124.375 346.507 124.089C346.531 123.804 346.484 123.518 346.369 123.256C346.266 122.705 345.957 121.088 345.888 120.779ZM356.414 143.552C358.65 144.205 360.783 143.139 360.714 142.588C360.645 142.038 360.714 142.313 357.687 141.178C355.657 140.421 353.421 137.738 352.63 138.151C351.839 138.564 353.043 140.765 353.318 141.178C354.054 142.295 355.145 143.131 356.414 143.552ZM419.332 110.872C414.825 129.757 411.523 145.788 410.973 148.987C410.607 150.379 410.537 151.832 410.766 153.252C412.589 157.14 436.153 164.811 439.146 163.297C442.139 161.784 449.913 144.274 458.961 126.214C464.503 126.391 470.049 125.987 475.507 125.01C481.254 123.956 486.848 122.187 492.157 119.747C503.784 114.38 516.512 91.4011 518.232 79.8427C519.522 67.2938 516.864 54.655 510.629 43.6883C481.768 -6.36368 397.109 20.5715 403.989 76.1619C405.954 88.8821 411.247 100.857 419.332 110.872ZM440.316 151.842C440.316 152.392 439.697 152.324 436.876 151.842C431.106 151.117 425.52 149.333 420.398 146.579C417.99 145.272 417.337 144.996 417.577 144.412C417.818 143.827 418.334 144.033 422.049 145.065C422.393 145.065 433.057 148.505 436.119 149.572C440.075 151.36 440.316 151.36 440.316 151.842ZM439.697 95.8731C443.37 96.0636 447.031 95.3054 450.326 93.6715C453.389 95.1554 456.703 96.0538 460.096 96.3203C454.317 107.088 442.586 129.035 438.802 140.731L424.217 136.706C427.657 128.244 435.259 108.429 439.628 95.8731H439.697ZM438.493 93.0179C435.925 92.63 433.555 91.4104 431.747 89.5463C429.939 87.6822 428.792 85.2764 428.482 82.6979C427.519 75.8179 431.922 68.1123 438.561 69.9355C442.724 71.0707 443.24 74.3731 442.517 78.5355C441.898 81.5627 439.662 89.1651 438.424 92.8803L438.493 93.0179ZM447.849 84.7619C448.217 82.5109 449.061 80.3646 450.326 78.4667C450.928 77.4322 451.808 76.5872 452.866 76.0277C453.924 75.4683 455.118 75.2168 456.312 75.3019C458.857 76.0587 459.958 80.8747 457.86 83.9019C455.843 86.5782 453.333 88.8435 450.464 90.5755C449.477 89.9962 448.69 89.1286 448.211 88.0894C447.731 87.0501 447.581 85.889 447.781 84.7619H447.849ZM416.236 41.0395C431.647 22.4979 460.646 15.1363 481.596 22.7731C492.976 26.6797 502.549 34.5897 508.531 45.0299C514.462 55.4654 516.999 67.4878 515.789 79.4299C514.207 90.1283 502.029 112.351 491.331 117.27C481.55 121.732 470.877 123.897 460.13 123.6C458.961 123.6 457.722 123.6 457.275 124.425C455.245 128.553 451.53 136.534 447.884 144.033C445.366 142.817 442.755 141.805 440.075 141.006C444.065 129.585 456.656 107.156 462.641 96.2859C467.828 96.7302 473.041 95.8298 477.777 93.6715C479.057 92.9979 480.118 91.9732 480.836 90.7177C481.554 89.4623 481.899 88.0281 481.83 86.5835C481.762 85.1389 481.282 83.7439 480.449 82.5621C479.615 81.3803 478.462 80.4608 477.124 79.9115C471.792 77.2971 467.01 83.5579 464.224 88.8211C463.467 90.1971 462.607 91.8139 461.644 93.6371C458.861 93.4543 456.118 92.887 453.491 91.9515C456.107 90.113 458.427 87.8857 460.371 85.3467C461.46 83.702 462.012 81.7597 461.95 79.788C461.889 77.8163 461.217 75.9123 460.027 74.3387C459.093 73.2534 457.794 72.5463 456.376 72.35C454.957 72.1536 453.516 72.4816 452.321 73.2723C449.912 74.7526 447.982 76.8968 446.761 79.4475C445.541 81.9981 445.083 84.8468 445.441 87.6515C445.815 89.2347 446.668 90.6641 447.884 91.7451C445.627 92.6797 443.205 93.1477 440.763 93.1211C442.139 89.0619 444.375 81.7347 444.96 78.7419C445.327 77.0357 445.408 75.2804 445.201 73.5475C444.934 72.0599 444.244 70.6809 443.213 69.5763C442.181 68.4717 440.853 67.6886 439.387 67.3211C431.028 64.9475 424.87 74.2011 426.074 82.8355C426.414 85.9298 427.742 88.8321 429.861 91.1123C431.981 93.3925 434.778 94.9292 437.839 95.4947C433.436 107.879 426.556 127.865 423.116 136.396L415.548 134.436C420.398 110.08 420.983 110.665 420.295 110.356C412.479 100.39 407.478 88.5108 405.813 75.9555C405.002 69.73 405.511 63.4035 407.307 57.3878C409.103 51.372 412.145 45.8018 416.236 41.0395ZM463.983 93.8435C466.391 89.4747 471.207 79.9115 475.885 82.2507C476.821 82.6277 477.636 83.2531 478.242 84.0595C478.849 84.8658 479.223 85.8223 479.325 86.8259C479.257 92.8803 469.831 93.9467 463.845 93.8435H463.983ZM595.666 109.014C599.812 106.576 604.708 105.744 609.426 106.675C614.609 106.767 619.56 108.84 623.264 112.467C626.967 116.093 629.143 121 629.344 126.18C626.227 124.371 622.583 123.691 619.024 124.253C610.389 125.01 599.106 129.688 600.62 138.013C601.858 144.893 610.94 143.964 617.82 142.107C624.7 140.249 630.169 136.878 631.58 130.239C639.939 136.328 641.9 146.992 642.244 157.415C642.244 157.561 642.302 157.701 642.405 157.804C642.508 157.907 642.648 157.965 642.794 157.965C642.94 157.965 643.08 157.907 643.183 157.804C643.287 157.701 643.345 157.561 643.345 157.415C643.585 145.753 641.487 134.332 631.958 127.693C632.056 124.706 631.547 121.731 630.462 118.947C629.376 116.163 627.737 113.628 625.644 111.495C623.55 109.363 621.045 107.678 618.281 106.542C615.518 105.406 612.552 104.842 609.564 104.886C604.788 104.189 599.92 105.187 595.804 107.707C594.531 108.326 595.116 109.255 595.666 109.014ZM627.039 133.679C623.152 138.77 612.144 141.419 607.053 140.559C605.161 140.249 603.613 139.458 603.2 137.497C601.961 130.617 613.829 126.868 620.916 126.627C623.802 126.406 626.68 127.143 629.103 128.725C628.843 130.524 628.133 132.227 627.039 133.679ZM579.911 68.8003C583.592 64.2595 581.115 56.3475 570.829 56.3131C566.839 56.3131 564.913 60.3723 565.188 64.2595C565.807 73.5131 576.23 73.2379 579.911 68.8003ZM567.596 64.0875C567.596 61.8171 568.662 58.8587 571.036 58.8931C576.574 58.8931 579.12 61.4731 579.12 64.3283C578.982 70.8299 567.149 74.2011 567.596 64.0875ZM566.185 454.08C535.948 442.006 521.913 500.452 497.213 550.676C497.057 552.787 497.127 554.909 497.42 557.005C497.42 562.268 498.005 597.115 501.066 601.071C501.892 602.654 505.366 601.072 506.983 600.074C520.715 591.573 533.655 581.856 545.649 571.04C545.751 570.923 545.828 570.787 545.875 570.639C545.923 570.491 545.939 570.335 545.924 570.18C552.322 561.064 576.299 513.592 582.113 489.788C586.172 472.932 582.147 460.376 566.185 454.08ZM576.987 497.768C560.799 495.694 545.148 490.582 530.857 482.701C538.906 467.462 548.848 450.09 565.257 456.626C583.523 463.884 583.145 478.917 576.987 497.665V497.768ZM519.745 587.208C518.689 586.323 517.535 585.561 516.305 584.938C511.657 582.575 506.286 582.058 501.273 583.493C500.929 579.4 498.968 552.774 498.968 552.533C524.733 561.959 516.787 557.865 542.312 570.559C539.629 573.104 529.549 580.156 519.745 587.14V587.208ZM537.496 487.655C540.851 489.488 544.295 491.152 547.816 492.643C539.931 505.028 532.964 517.974 526.969 531.377C521.19 543.452 521.397 543.383 515.514 556.558C512.074 555.457 508.634 554.425 505.194 553.393C508.909 545.997 535.329 491.92 537.496 487.586V487.655ZM516.856 556.902C528.036 536.847 539.422 511.907 549.192 493.09C552.632 494.535 556.072 495.704 559.512 496.736C557.689 500.176 552.357 509.327 550.946 511.976C549.536 514.624 535.397 542.488 534.4 544.621C532.817 548.061 528.483 557.659 527.141 560.72C523.633 559.172 520.261 558.003 516.718 556.833L516.856 556.902ZM528.38 561.168C530.478 557.349 539.113 541.319 540.179 539.255C541.796 536.056 559.821 499.213 560.819 497.08C563.984 497.975 567.321 498.732 569.453 499.144C563.158 516.344 545.029 549.472 538.493 565.812C532.542 563.025 531.201 562.337 528.242 561.099L528.38 561.168ZM530.478 483.699L536.636 487.139C524.227 508.271 513.418 530.303 504.3 553.049L499.14 551.467C519.126 508.88 520.055 503.307 530.341 483.63L530.478 483.699ZM544.651 568.804L539.457 566.328C545.064 555.32 562.608 527.077 570.623 499.385C572.549 499.729 574.441 500.039 576.265 500.28C567.425 523.867 556.811 546.751 544.513 568.736L544.651 568.804ZM436.876 591.13C438.247 589.995 439.227 588.458 439.678 586.736C440.128 585.014 440.027 583.194 439.387 581.532C439.095 579.135 437.996 576.909 436.27 575.221C434.545 573.532 432.296 572.48 429.893 572.24C427.49 572 425.078 572.585 423.052 573.899C421.026 575.212 419.508 577.177 418.747 579.468C414.344 576.613 409.562 573.586 404.987 570.696C408.427 566.121 418.541 568.151 419.573 571.9C419.595 572.046 419.675 572.177 419.795 572.264C419.914 572.351 420.063 572.388 420.209 572.365C420.355 572.342 420.486 572.262 420.573 572.143C420.66 572.023 420.696 571.874 420.673 571.728C420.157 565.743 407.705 562.234 402.682 569.286C398.245 566.568 392.741 563.266 388.131 560.755C392.087 557.315 400.928 559.241 401.891 562.819C401.936 562.941 402.024 563.043 402.137 563.107C402.251 563.171 402.384 563.193 402.512 563.168C402.64 563.143 402.755 563.074 402.837 562.972C402.918 562.87 402.961 562.743 402.957 562.612C402.51 557.04 390.986 553.29 385.757 559.413C383.567 558.186 381.263 557.172 378.877 556.386C378.442 556.205 377.963 556.154 377.499 556.24C377.035 556.325 376.606 556.543 376.263 556.868C367.56 567.704 338.217 595.843 324.663 599.111C324.322 599.162 324.001 599.302 323.732 599.517C323.462 599.732 323.255 600.014 323.129 600.335C323.003 600.656 322.965 601.004 323.017 601.345C323.068 601.686 323.209 602.007 323.425 602.276C326.401 605.296 329.809 607.858 333.538 609.878C330.098 613.318 327.415 616.414 325.42 618.65C324.388 619.751 323.837 640.804 324.732 645.448C324.865 645.902 325.158 646.293 325.557 646.548C329.892 649.507 385.723 673.656 391.433 670.422C395.252 668.255 440.832 620.817 441.554 619.372C442.655 617.102 442.277 601.966 442.208 595.911C441.933 594.088 438.527 592.128 436.876 591.13ZM326.796 636.572V628.901C341.072 635.781 373.752 649.816 386.136 653.738C389.301 654.77 389.576 654.632 391.227 653.738C400.687 647.684 434.089 610.05 440.213 604.305V611.564C421.637 630.174 390.092 662.785 389.507 660.928C386.101 660.721 329.754 637.948 326.796 636.572ZM436.016 579.537C437.253 581.621 437.917 583.994 437.942 586.417C437.93 587.188 437.741 587.946 437.389 588.632C437.037 589.318 436.532 589.914 435.913 590.373C433.023 588.447 427.553 584.869 421.086 580.672C424.629 573.689 432.507 573.586 435.878 579.537H436.016ZM325.936 601.553C340.59 597.219 368.42 570.387 377.777 558.76C380.029 559.386 382.199 560.275 384.244 561.408C380.804 567.807 384.485 574.824 385.792 573.827C386.514 573.276 385.207 573.07 385.001 569.699C384.913 567.236 385.47 564.793 386.617 562.612C391.365 565.089 396.937 568.323 401.65 571.04C398.761 577.473 402.235 583.837 403.439 582.908C404.643 581.98 402.889 582.186 402.682 578.815C402.598 576.604 403.022 574.403 403.921 572.382C408.771 575.237 413.725 578.196 418.265 580.982C417.566 582.696 417.288 584.553 417.456 586.397C417.623 588.241 418.231 590.017 419.229 591.577C419.274 591.636 419.33 591.685 419.394 591.722C419.459 591.759 419.529 591.783 419.603 591.793C419.676 591.802 419.751 591.797 419.823 591.778C419.894 591.759 419.961 591.725 420.02 591.68C420.079 591.635 420.128 591.579 420.165 591.515C420.202 591.45 420.226 591.38 420.235 591.306C420.245 591.233 420.24 591.158 420.221 591.086C420.201 591.015 420.168 590.948 420.123 590.889C419.505 589.522 419.199 588.035 419.229 586.535C419.259 585.036 419.623 583.561 420.295 582.22C428.31 587.105 434.777 591.199 436.773 592.54C436.394 592.884 400.515 624.808 388.303 634.302C380.288 632.204 338.217 611.323 325.936 601.553ZM327.243 620.714C342.826 627.594 378.224 643.556 386.377 645.104C387.787 645.379 388.337 645.482 391.021 643.349C402.476 634.164 439.731 595.189 440.075 595.602C440.092 595.704 440.092 595.809 440.075 595.911V602.792C432.404 608.949 389.748 653.738 389.06 651.605C385.62 651.605 329.72 628.798 326.865 627.525C326.796 626.08 327.105 622.228 327.243 620.714ZM389.885 668.117C386.445 670.078 334.054 648.784 327.037 644.45C326.773 642.258 326.647 640.052 326.658 637.845C341.725 645.275 385.551 663.783 389.576 663.611C395.458 663.301 437.048 616.483 440.006 613.215C440.04 614.972 439.867 616.727 439.49 618.444C438.905 619.579 392.156 666.844 389.885 668.117ZM104.881 474.204C105.122 477.885 105.294 481.084 105.294 484.077C105.294 484.533 105.475 484.971 105.798 485.293C106.121 485.616 106.558 485.797 107.014 485.797C107.47 485.797 107.908 485.616 108.23 485.293C108.553 484.971 108.734 484.533 108.734 484.077C108.734 480.878 108.562 477.713 108.321 473.964C108.289 473.507 108.078 473.083 107.732 472.783C107.387 472.483 106.937 472.332 106.481 472.364C106.025 472.396 105.6 472.608 105.3 472.953C105 473.298 104.849 473.748 104.881 474.204ZM629.034 405.232C628.81 405.245 628.59 405.303 628.388 405.402C628.186 405.502 628.006 405.64 627.859 405.81C627.711 405.98 627.599 406.178 627.529 406.392C627.459 406.606 627.433 406.831 627.452 407.056C627.658 410.22 627.865 413.626 627.865 416.928C627.865 417.385 628.046 417.822 628.368 418.145C628.691 418.467 629.128 418.648 629.585 418.648C630.041 418.648 630.478 418.467 630.801 418.145C631.123 417.822 631.305 417.385 631.305 416.928C631.305 413.488 631.098 410.048 630.857 406.815C630.844 406.59 630.787 406.37 630.687 406.168C630.588 405.967 630.449 405.787 630.279 405.639C630.11 405.492 629.912 405.38 629.698 405.31C629.484 405.24 629.258 405.214 629.034 405.232ZM95.9718 465.639C96.428 465.639 96.8655 465.458 97.188 465.135C97.5106 464.812 97.6918 464.375 97.6918 463.919C97.6918 463.463 97.5106 463.025 97.188 462.702C96.8655 462.38 96.428 462.199 95.9718 462.199C91.8094 462.199 88.335 462.508 84.895 462.44C84.4356 462.439 83.9945 462.62 83.6665 462.941C83.3384 463.263 83.1496 463.7 83.1406 464.16C83.1406 464.616 83.3218 465.053 83.6444 465.376C83.9669 465.698 84.4044 465.88 84.8606 465.88C88.4038 465.948 92.291 465.811 95.9718 465.639ZM618.37 395.05C614.242 395.05 610.768 395.291 607.293 395.325C606.837 395.325 606.4 395.506 606.077 395.829C605.755 396.151 605.573 396.589 605.573 397.045C605.573 397.501 605.755 397.939 606.077 398.261C606.4 398.584 606.837 398.765 607.293 398.765C611.009 398.765 614.861 398.765 618.577 398.49C619.033 398.463 619.459 398.255 619.763 397.913C620.066 397.571 620.221 397.123 620.193 396.667C620.166 396.211 619.959 395.784 619.617 395.481C619.275 395.178 618.826 395.023 618.37 395.05ZM103.953 444.38C104.159 447.544 104.365 450.95 104.365 454.252C104.374 454.706 104.558 455.138 104.879 455.459C105.2 455.78 105.632 455.964 106.085 455.972C106.542 455.972 106.979 455.791 107.302 455.469C107.624 455.146 107.805 454.709 107.805 454.252C107.805 450.812 107.599 447.372 107.393 444.139C107.361 443.683 107.149 443.258 106.804 442.958C106.459 442.658 106.008 442.507 105.552 442.539C105.096 442.571 104.671 442.783 104.371 443.128C104.071 443.473 103.921 443.923 103.953 444.38ZM630.376 387.104C630.376 383.664 630.169 380.224 629.929 376.99C629.897 376.534 629.685 376.109 629.34 375.809C628.995 375.509 628.544 375.358 628.088 375.39C627.632 375.422 627.207 375.634 626.907 375.979C626.607 376.324 626.457 376.775 626.489 377.231C626.695 380.396 626.901 383.801 626.901 387.104C626.901 387.56 627.083 387.997 627.405 388.32C627.728 388.642 628.165 388.824 628.621 388.824C629.081 388.824 629.522 388.644 629.85 388.322C630.178 388 630.367 387.563 630.376 387.104ZM129.34 465.192C129.566 465.183 129.788 465.129 129.993 465.035C130.198 464.94 130.383 464.806 130.536 464.639C130.69 464.473 130.809 464.279 130.887 464.066C130.965 463.854 131 463.629 130.991 463.403C130.956 462.953 130.753 462.532 130.421 462.226C130.089 461.92 129.654 461.75 129.202 461.752C125.04 461.924 121.565 462.061 118.091 461.992C117.635 461.992 117.197 462.174 116.875 462.496C116.552 462.819 116.371 463.256 116.371 463.712C116.371 464.169 116.552 464.606 116.875 464.929C117.197 465.251 117.635 465.432 118.091 465.432C121.772 465.501 125.625 465.364 129.34 465.192ZM651.738 394.603C648.298 394.775 644.48 394.878 640.661 394.878C640.434 394.869 640.208 394.905 639.995 394.986C639.783 395.066 639.589 395.189 639.425 395.347C639.261 395.504 639.131 395.693 639.042 395.902C638.953 396.111 638.907 396.336 638.907 396.564C638.907 397.023 639.087 397.464 639.409 397.792C639.73 398.12 640.168 398.309 640.627 398.318C644.549 398.318 647.713 398.318 651.876 398.043C652.102 398.034 652.324 397.981 652.529 397.886C652.734 397.791 652.919 397.657 653.072 397.491C653.226 397.325 653.345 397.13 653.423 396.918C653.501 396.705 653.536 396.48 653.527 396.254C653.485 395.807 653.279 395.391 652.949 395.086C652.618 394.781 652.187 394.609 651.738 394.603ZM50.2886 363.264C50.7358 363.608 147.744 349.229 151.906 346.684C152.137 346.515 152.321 346.291 152.441 346.033C152.561 345.774 152.614 345.489 152.594 345.204C152.594 340.767 146.781 299.108 143.994 288.72C143.65 287.447 143.306 286.174 142.515 285.727C137.252 282.562 44.5094 300.037 38.971 303.615C38.8209 303.703 38.6912 303.823 38.5904 303.965C38.4897 304.107 38.4201 304.269 38.3862 304.44C37.2166 308.603 47.2958 361.2 50.2886 363.264ZM40.4846 305.266C47.0894 302.273 131.266 286.862 140.898 288.066C143.237 294.086 149.498 338.187 149.911 344.654C145.129 346.064 51.5958 362.129 51.2518 362.198C50.9078 362.267 50.8734 362.68 50.151 360.512C47.1238 351.431 40.3126 313.04 40.4846 305.266Z" fill="black"/>
<path d="M159.478 349.745C159.666 349.397 159.749 349.003 159.719 348.609C159.719 343.14 151.876 282.424 149.09 277.573C148.871 277.216 148.562 276.922 148.193 276.723C147.825 276.524 147.41 276.425 146.991 276.438C135.467 275.028 38.2528 294.017 31.8544 298.454C30.96 299.073 31.0976 300.621 31.2008 302.273C31.7512 311.32 41.5208 370.832 44.9608 370.488C45.3392 370.488 45.2016 370.213 44.3072 372.036C38.9408 383.078 28.7584 418.441 28.9648 425.562C28.9648 428.555 29.6528 432.442 32.6112 432.236C53.836 429.621 157.896 413.109 187.824 406.952C188.994 406.711 189.75 405.645 189.716 403.89C189.363 400.967 188.477 398.134 187.102 395.531C182.905 387.653 165.498 356.453 159.478 349.745ZM45.1672 369.421C42.484 365.981 32.6112 306.71 33.368 300.14C40.936 296.218 136.843 277.677 146.888 279.19C149.64 286.758 156.761 341.42 157.208 347.99C145.03 352.187 60.716 365.809 45.1672 369.421ZM46.6808 370.453C49.5704 369.731 147.989 353.253 157.002 350.88C161.921 355.455 184.143 394.981 185.588 398.352C165.842 401.792 48.7104 421.365 31.476 423.98C31.7168 413.557 42.4152 377.127 46.6808 370.453Z" fill="black"/>
<path d="M59.6153 406.126C62.6081 405.679 126.11 398.042 149.055 391.816C149.197 391.78 149.318 391.688 149.392 391.563C149.466 391.437 149.487 391.287 149.451 391.145C149.414 391.004 149.323 390.883 149.197 390.809C149.072 390.734 148.921 390.713 148.78 390.75C144.274 391.678 89.3025 399.006 59.5465 405.06C59.4643 405.045 59.3798 405.049 59.2994 405.072C59.219 405.095 59.1449 405.136 59.0825 405.191C59.0202 405.247 58.9714 405.316 58.9397 405.393C58.908 405.47 58.8944 405.554 58.8998 405.637C58.9051 405.721 58.9294 405.802 58.9708 405.874C59.0121 405.947 59.0694 406.009 59.1384 406.056C59.2073 406.103 59.2861 406.134 59.3687 406.146C59.4513 406.158 59.5356 406.152 59.6153 406.126ZM106.021 166.771C104.736 169.674 103.655 172.662 102.787 175.715C102.736 176.205 102.871 176.696 103.166 177.091C106.64 182.32 142.244 222.465 151.532 228.106C152.805 228.898 154.318 229.448 155.247 228.313C161.994 219.917 170.8 213.411 180.806 209.427C188.951 206.546 197.49 204.933 206.125 204.646C213.005 204.026 214.209 203.338 216.858 198.832C219.982 192.901 224.128 187.568 229.104 183.077C235.449 177.529 242.492 172.834 250.054 169.11C250.394 168.918 250.66 168.616 250.81 168.255C250.959 167.893 250.984 167.492 250.879 167.115C249.716 164.156 248.179 161.358 246.304 158.79C247.542 158.378 248.918 157.999 248.918 156.761C248.918 153.321 218.922 109.908 210.597 101.721C209.737 100.861 208.498 99.7257 207.363 99.7945C190.163 100.758 173.41 116.994 163.71 131.167C152.598 130.754 145.409 129.757 132.75 135.089C123.813 138.882 115.756 144.48 109.082 151.532C108.05 152.598 101.033 160.029 100.93 160.614C100.826 161.198 101.033 161.198 106.021 166.771ZM243.621 165.808C229.276 168.25 220.126 180.187 213.383 193.156C210.39 198.935 210.666 199.21 207.501 199.142C201.967 198.828 196.415 199.036 190.92 199.761C186.889 200.363 182.926 201.354 179.086 202.719C170.349 205.815 160.338 215.722 155.006 223.084C154.893 223.235 154.749 223.361 154.584 223.453C154.419 223.545 154.236 223.601 154.047 223.617C153.859 223.633 153.669 223.61 153.491 223.547C153.312 223.485 153.149 223.386 153.011 223.256C141.831 211.732 122.051 191.505 112.11 179.878C111.628 179.362 112.454 178.605 112.935 179.155C119.368 186.035 135.983 202.513 153.802 220.435C159.822 212.764 169.11 203.476 178.295 200.242C183.304 198.456 188.515 197.3 193.81 196.802C198.768 196.426 203.747 196.426 208.705 196.802C210.734 194.463 220.779 167.906 243.552 164.948C243.619 164.997 243.674 165.06 243.712 165.133C243.751 165.206 243.773 165.287 243.776 165.37C243.78 165.452 243.764 165.535 243.731 165.611C243.699 165.686 243.649 165.754 243.586 165.808H243.621ZM207.329 102.581C214.209 107.397 242.21 148.849 245.857 156.107C239.53 158.112 233.421 160.751 227.625 163.985C222.136 166.736 217.33 170.678 213.557 175.522C209.784 180.366 207.139 185.991 205.815 191.986C193.466 171.897 176.231 149.778 164.776 133.506C165.464 133.059 184.797 103.922 207.329 102.581ZM133.506 136.981C146.062 131.924 153.011 133.094 163.4 133.541C173.72 151.154 192.262 175.99 204.474 192.262C193.202 189.595 181.342 191.226 171.209 196.837C165.12 200.277 157.69 208.533 153.114 213.658C146.51 208.361 108.394 167.769 102.271 160.889C111.697 150.225 120.4 142.21 133.506 136.843V136.981ZM70.5545 224.46C69.7042 223.863 68.6991 223.526 67.6611 223.49C66.623 223.453 65.5966 223.718 64.7065 224.254C64.0582 224.543 63.4732 224.957 62.985 225.472C62.4967 225.987 62.1147 226.593 61.8607 227.256C61.6068 227.919 61.4859 228.625 61.5049 229.335C61.5239 230.045 61.6825 230.743 61.9717 231.392C62.2608 232.04 62.6748 232.625 63.1899 233.113C63.7051 233.601 64.3114 233.983 64.9743 234.237C65.6371 234.491 66.3434 234.612 67.053 234.593C67.7626 234.574 68.4614 234.416 69.1097 234.126C70.1453 233.9 71.0876 233.364 71.8117 232.59C72.5357 231.816 73.0074 230.84 73.1641 229.791C73.3208 228.743 73.1551 227.672 72.6891 226.719C72.223 225.767 71.4786 224.979 70.5545 224.46ZM68.2841 231.34C65.8761 232.097 64.4313 231.34 63.8465 230.17C62.7457 227.728 64.1217 223.978 67.6993 225.079C70.2105 226.008 72.2401 230.239 68.2841 231.512V231.34ZM245.478 67.0457C246.476 69.0753 251.12 68.3185 253.15 67.6649C254.216 67.3209 254.904 66.9425 255.007 65.9105C255.317 63.3305 255.661 40.9705 254.491 38.8033C254.37 38.576 254.185 38.3895 253.959 38.2671C253.732 38.1447 253.475 38.0919 253.218 38.1153C249.548 38.1051 245.897 38.6383 242.382 39.6977C240.972 40.5577 244.24 64.7753 245.478 67.0457ZM243.105 40.5233C246.282 40.0687 249.496 39.9189 252.702 40.0761C252.909 42.6217 252.358 64.6721 252.324 65.0161C250.871 65.5369 249.319 65.725 247.783 65.5665C247.542 64.7753 247.13 62.6425 246.614 59.9593C245.098 53.5479 243.927 47.0599 243.105 40.5233ZM67.2177 195.426C67.5477 195.596 67.9132 195.684 68.2841 195.684C68.6549 195.684 69.0204 195.596 69.3505 195.426C70.6795 194.607 71.7335 193.409 72.3777 191.986C72.4652 191.759 72.4921 191.512 72.456 191.271C72.4198 191.03 72.3217 190.802 72.1713 190.61C70.5201 188.65 52.4945 167.769 50.2929 169.076C47.5898 170.826 45.0251 172.781 42.6217 174.924C42.5248 175.011 42.4472 175.117 42.3939 175.235C42.3405 175.354 42.3127 175.482 42.3121 175.612C42.2433 177.401 62.2641 193.431 67.2177 195.426ZM50.7057 169.97C53.2169 171.794 61.6793 182.251 69.5225 191.505C69.185 192.036 68.7673 192.512 68.2841 192.915C60.0379 187.638 52.1647 181.799 44.7201 175.44C46.5863 173.481 48.5863 171.653 50.7057 169.97ZM104.748 94.0841C105.505 80.7369 113.279 74.5449 121.398 72.9625C119.093 81.4249 119.471 92.4329 127.83 93.8433C131.821 94.4969 133.782 92.4329 136.671 90.0249C149.021 79.7049 139.045 69.3849 125.113 70.1073C130.307 55.8657 142.313 44.2729 158.24 43.8945C158.386 43.8945 158.526 43.8365 158.629 43.7333C158.732 43.63 158.79 43.49 158.79 43.3441C158.79 43.1981 158.732 43.0581 158.629 42.9549C158.526 42.8517 158.386 42.7937 158.24 42.7937C141.04 42.4497 127.521 54.8337 122.189 70.3137C113.004 71.8961 103.888 78.7761 103.647 93.8777C103.634 93.9499 103.635 94.0242 103.65 94.0962C103.665 94.1681 103.694 94.2364 103.735 94.2971C103.777 94.3578 103.83 94.4097 103.892 94.4499C103.953 94.4901 104.022 94.5177 104.094 94.5313C104.167 94.5448 104.241 94.544 104.313 94.5289C104.385 94.5137 104.453 94.4846 104.514 94.443C104.575 94.4015 104.626 94.3484 104.667 94.2868C104.707 94.2252 104.735 94.1563 104.748 94.0841ZM124.322 72.5497C129.447 72.2057 137.084 73.7881 139.182 78.4321C140.386 81.0809 139.182 84.3489 134.917 87.9265C133.759 89.0866 132.438 90.0717 130.995 90.8505C125.835 93.0521 120.125 86.6881 124.322 72.5497ZM134.16 559.069C130.837 558.179 127.369 557.962 123.96 558.432C120.552 558.902 117.272 560.049 114.313 561.806C111.355 563.562 108.777 565.893 106.733 568.66C104.689 571.428 103.218 574.576 102.409 577.92C100.881 584.868 102.175 592.138 106.007 598.131C109.839 604.124 115.895 608.349 122.842 609.878C129.79 611.406 137.06 610.112 143.053 606.279C149.046 602.447 153.272 596.392 154.8 589.444C155.453 586.093 155.436 582.646 154.75 579.302C154.065 575.958 152.724 572.782 150.805 569.959C148.886 567.135 146.428 564.719 143.571 562.85C140.714 560.981 137.516 559.696 134.16 559.069ZM144.79 587.105C143.409 592.61 140.105 597.439 135.474 600.72C130.843 604.001 125.191 605.516 119.54 604.993C114.353 602.966 110.046 599.174 107.378 594.286C104.71 589.397 103.852 583.723 104.954 578.264C106.242 572.626 109.515 567.639 114.177 564.215C118.838 560.792 124.576 559.16 130.342 559.619C135.58 561.784 139.888 565.727 142.505 570.754C145.123 575.782 145.883 581.572 144.652 587.105H144.79Z" fill="black"/>
<path d="M179.981 568.872C176.986 567.839 173.777 567.59 170.658 568.15C169.366 565.187 167.775 562.363 165.911 559.722C168.147 557.692 174.27 552.051 172.791 549.402C167.527 543.105 161.277 537.703 154.284 533.406C151.364 531.77 148.149 530.729 144.824 530.344C142.622 530.654 137.394 539.219 136.224 541.146C135.467 541.146 132.784 540.286 132.578 540.183C132.578 537.706 131.855 528.762 129.619 527.73C127.119 526.809 124.522 526.175 121.879 525.838C119.437 525.459 97.4552 529.484 95.8384 532.443C94.772 534.438 97.2488 541.971 97.9712 544.07C96.1159 545.091 94.3343 546.24 92.6392 547.51C89.1992 549.952 90.128 549.849 89.5088 549.574C88.7604 549.217 87.9586 548.984 87.1352 548.886C84.3872 547.275 81.1653 546.667 78.0192 547.166C74.8544 548.198 67.3896 565.192 66.1856 569.56C65.7916 570.662 65.685 571.846 65.876 573C66.7016 575.271 72.2056 577.094 74.5104 577.816C73.8739 582.243 73.8739 586.737 74.5104 591.164C71.4832 591.989 65.188 593.847 65.532 596.943C65.876 600.039 73.9256 620.472 77.2624 622.089C79.0903 623.111 81.1117 623.74 83.1969 623.936C85.2821 624.131 87.3851 623.889 89.3712 623.224C90.4897 622.666 91.57 622.034 92.6048 621.332C93.9808 622.364 95.4256 623.293 96.9048 624.187C95.8384 626.836 93.4648 632.753 94.2216 635.436C94.6 636.847 95.7352 637.294 97.3176 637.879C101.686 639.461 125.216 645.103 128.794 644.484C130.135 644.277 130.858 642.867 131.27 641.525C132.035 638.472 132.484 635.348 132.612 632.203C134.379 632.028 136.135 631.764 137.875 631.412C138.938 633.281 140.297 634.966 141.9 636.399C143.654 637.638 145.134 637.019 147.129 635.746C148.092 636.984 149.537 638.704 151.085 638.876C154.972 639.323 171.037 624.188 172.688 621.092C174.064 618.512 169.042 613.902 166.806 611.872C169.224 608.232 171.123 604.273 172.447 600.107C174.928 600.481 177.439 600.62 179.946 600.52C181.082 600.52 182.389 600.107 182.87 599.041C184.969 594.259 184.35 576.131 182.87 571.521C182.664 570.179 181.116 569.285 179.981 568.872ZM180.806 572.037C181.976 576.509 182.354 593.399 180.634 597.768C177.66 598.061 174.659 597.922 171.725 597.355C171.411 597.302 171.089 597.368 170.822 597.539C170.555 597.711 170.361 597.977 170.28 598.284C168.91 602.935 166.783 607.328 163.985 611.287C163.785 611.55 163.696 611.879 163.734 612.206C163.773 612.534 163.936 612.833 164.191 613.042C166.605 614.954 168.655 617.285 170.246 619.922C168.526 622.743 155.075 635.058 151.36 636.09C150.81 636.09 149.296 634.026 148.918 633.475C147.647 631.566 146.498 629.578 145.478 627.524C145.329 627.225 145.073 626.992 144.761 626.871C144.45 626.75 144.104 626.75 143.792 626.871C133.816 630.62 130.032 628.419 130.032 630.895C130.036 634.604 129.432 638.288 128.243 641.8C120.159 640.921 112.198 639.144 104.507 636.503C104.879 632.83 105.904 629.254 107.534 625.942C108.566 623.637 104.438 624.291 96.7328 616.447C96.4848 616.218 96.1592 616.09 95.8212 616.09C95.4832 616.09 95.1576 616.218 94.9096 616.447C91.4696 619.268 86.9976 622.02 86.1032 621.573C84.3488 620.713 76.2648 602.378 75.7832 598.663C78.2299 596.958 81.0075 595.786 83.936 595.223C84.2483 595.134 84.518 594.936 84.6951 594.664C84.8722 594.392 84.9447 594.065 84.8992 593.744C84.0562 588.872 84.0562 583.892 84.8992 579.02C84.9517 578.72 84.8887 578.412 84.7227 578.156C84.5568 577.901 84.3002 577.718 84.0048 577.644C81.4115 576.965 78.9147 575.959 76.5744 574.651C75.8176 574.101 75.8864 574.135 75.9552 573.551C78.1817 565.52 81.7525 557.925 86.516 551.087C88.3736 550.571 93.396 554.252 95.116 555.559C95.2957 555.734 95.5363 555.832 95.7868 555.832C96.0372 555.832 96.2779 555.734 96.4576 555.559C98.0382 553.92 99.7401 552.402 101.549 551.019C106.778 547.063 108.188 547.579 107.741 546.203C106.159 542.751 105.271 539.023 105.126 535.229C105.66 534.786 106.265 534.437 106.915 534.197C110.127 532.927 113.426 531.892 116.788 531.101C120.863 529.966 125.051 529.285 129.275 529.071C129.998 529.381 130.651 532.511 130.823 533.475C132.096 540.355 131.236 541.765 132.234 541.868C142.038 542.831 144.033 545.549 144.721 544.345C146.628 541.01 148.852 537.865 151.36 534.954C152.082 534.231 152.048 533.887 154.215 535.126C160.69 539.357 166.488 544.541 171.415 550.503C171.931 551.397 167.459 556.144 164.191 558.931C163.056 559.928 164.673 560.375 167.631 566.017C170.59 571.659 169.902 573.241 171.484 572.897C174.534 572.167 177.674 571.877 180.806 572.037ZM658.244 284.591C651.033 281.645 643.471 279.645 635.746 278.639C630.105 277.745 623.466 276.851 617.858 276.128C623.259 268.491 639.255 249.159 641.938 244.446C642.695 243.173 641.25 241.384 640.184 240.318C634.198 233.919 622.64 231.511 613.765 230.135C608.674 229.31 587.414 226.695 583.802 228.415C579.468 230.479 547.407 278.639 546.444 285.967C546.444 287.205 546.857 287.687 548.061 288.134C553.118 289.991 575.925 292.881 581.016 294.085C574.136 306.125 543.554 346.82 540.562 352.565C539.839 354.01 540.286 354.87 541.146 355.145C544.242 356.374 547.428 357.363 550.675 358.103C551.914 358.482 554.631 356.796 558.587 354.388C576.338 343.724 652.499 293.431 658.347 286.93C658.509 286.777 658.635 286.592 658.719 286.386C658.802 286.18 658.84 285.959 658.83 285.737C658.821 285.515 658.763 285.298 658.662 285.1C658.561 284.902 658.418 284.728 658.244 284.591ZM584.318 325.871C555.078 345.169 545.206 350.811 544.862 351.051C549.574 343.862 578.849 303.751 583.871 294.154C583.959 293.968 584.004 293.766 584.003 293.561C584.002 293.356 583.955 293.154 583.866 292.969C583.777 292.785 583.648 292.622 583.488 292.494C583.328 292.365 583.142 292.274 582.942 292.227C579.502 290.989 554.459 288.306 548.542 286.207C549.299 279.809 580.534 231.443 584.318 229.516C588.102 227.59 624.807 231.959 631.687 236.878C628.075 243.93 608.123 268.629 604.89 274.374C604.236 275.543 604.03 276.679 605.302 276.988C606.575 277.298 638.911 281.082 645.963 283.387C637.363 290.576 593.95 319.403 584.318 325.733V325.871ZM363.642 115.549C363.642 115.859 363.849 116.237 364.365 118.232C364.5 118.665 364.798 119.029 365.196 119.247C365.593 119.465 366.06 119.52 366.498 119.402C366.936 119.274 367.305 118.978 367.524 118.578C367.744 118.178 367.795 117.707 367.667 117.269C367.323 115.927 367.014 114.792 366.807 114.242C366.607 113.864 366.273 113.575 365.871 113.43C365.468 113.285 365.026 113.295 364.631 113.458C364.236 113.621 363.916 113.926 363.733 114.313C363.55 114.699 363.518 115.14 363.642 115.549Z" fill="black"/>
</svg>
